<svg xmlns="http://www.w3.org/2000/svg" viewBox="0 0 400 400" width="400" height="400">
  <circle cx="200.00" cy="10.00" r="3.6" fill="#78BE20"/>
  <circle cx="219.86" cy="11.04" r="3.6" fill="#78BE20"/>
  <circle cx="239.50" cy="14.15" r="3.6" fill="#78BE20"/>
  <circle cx="258.71" cy="19.30" r="3.6" fill="#78BE20"/>
  <circle cx="277.28" cy="26.43" r="3.6" fill="#78BE20"/>
  <circle cx="295.00" cy="35.46" r="3.6" fill="#78BE20"/>
  <circle cx="311.68" cy="46.29" r="3.6" fill="#78BE20"/>
  <circle cx="327.13" cy="58.80" r="3.6" fill="#78BE20"/>
  <circle cx="341.20" cy="72.87" r="3.6" fill="#78BE20"/>
  <circle cx="353.71" cy="88.32" r="3.6" fill="#78BE20"/>
  <circle cx="364.54" cy="105.00" r="3.6" fill="#78BE20"/>
  <circle cx="373.57" cy="122.72" r="3.6" fill="#78BE20"/>
  <circle cx="380.70" cy="141.29" r="3.6" fill="#78BE20"/>
  <circle cx="385.85" cy="160.50" r="3.6" fill="#78BE20"/>
  <circle cx="388.96" cy="180.14" r="3.6" fill="#78BE20"/>
  <circle cx="390.00" cy="200.00" r="3.6" fill="#78BE20"/>
  <circle cx="388.96" cy="219.86" r="3.6" fill="#78BE20"/>
  <circle cx="385.85" cy="239.50" r="3.6" fill="#78BE20"/>
  <circle cx="380.70" cy="258.71" r="3.6" fill="#78BE20"/>
  <circle cx="373.57" cy="277.28" r="3.6" fill="#78BE20"/>
  <circle cx="364.54" cy="295.00" r="3.6" fill="#78BE20"/>
  <circle cx="353.71" cy="311.68" r="3.6" fill="#78BE20"/>
  <circle cx="341.20" cy="327.13" r="3.6" fill="#78BE20"/>
  <circle cx="327.13" cy="341.20" r="3.6" fill="#78BE20"/>
  <circle cx="311.68" cy="353.71" r="3.6" fill="#78BE20"/>
  <circle cx="295.00" cy="364.54" r="3.6" fill="#78BE20"/>
  <circle cx="277.28" cy="373.57" r="3.6" fill="#78BE20"/>
  <circle cx="258.71" cy="380.70" r="3.6" fill="#78BE20"/>
  <circle cx="239.50" cy="385.85" r="3.6" fill="#78BE20"/>
  <circle cx="219.86" cy="388.96" r="3.6" fill="#78BE20"/>
  <circle cx="200.00" cy="390.00" r="3.6" fill="#78BE20"/>
  <circle cx="180.14" cy="388.96" r="3.6" fill="#78BE20"/>
  <circle cx="160.50" cy="385.85" r="3.6" fill="#78BE20"/>
  <circle cx="141.29" cy="380.70" r="3.6" fill="#78BE20"/>
  <circle cx="122.72" cy="373.57" r="3.6" fill="#78BE20"/>
  <circle cx="105.00" cy="364.54" r="3.6" fill="#78BE20"/>
  <circle cx="88.32" cy="353.71" r="3.6" fill="#78BE20"/>
  <circle cx="72.87" cy="341.20" r="3.6" fill="#78BE20"/>
  <circle cx="58.80" cy="327.13" r="3.6" fill="#78BE20"/>
  <circle cx="46.29" cy="311.68" r="3.6" fill="#78BE20"/>
  <circle cx="35.46" cy="295.00" r="3.6" fill="#78BE20"/>
  <circle cx="26.43" cy="277.28" r="3.6" fill="#78BE20"/>
  <circle cx="19.30" cy="258.71" r="3.6" fill="#78BE20"/>
  <circle cx="14.15" cy="239.50" r="3.6" fill="#78BE20"/>
  <circle cx="11.04" cy="219.86" r="3.6" fill="#78BE20"/>
  <circle cx="10.00" cy="200.00" r="3.6" fill="#78BE20"/>
  <circle cx="11.04" cy="180.14" r="3.6" fill="#78BE20"/>
  <circle cx="14.15" cy="160.50" r="3.6" fill="#78BE20"/>
  <circle cx="19.30" cy="141.29" r="3.6" fill="#78BE20"/>
  <circle cx="26.43" cy="122.72" r="3.6" fill="#78BE20"/>
  <circle cx="35.46" cy="105.00" r="3.6" fill="#78BE20"/>
  <circle cx="46.29" cy="88.32" r="3.6" fill="#78BE20"/>
  <circle cx="58.80" cy="72.87" r="3.6" fill="#78BE20"/>
  <circle cx="72.87" cy="58.80" r="3.6" fill="#78BE20"/>
  <circle cx="88.32" cy="46.29" r="3.6" fill="#78BE20"/>
  <circle cx="105.00" cy="35.46" r="3.6" fill="#78BE20"/>
  <circle cx="122.72" cy="26.43" r="3.6" fill="#78BE20"/>
  <circle cx="141.29" cy="19.30" r="3.6" fill="#78BE20"/>
  <circle cx="160.50" cy="14.15" r="3.6" fill="#78BE20"/>
  <circle cx="180.14" cy="11.04" r="3.6" fill="#78BE20"/>
</svg>
